<svg width="24" height="24" viewBox="0 0 24 24" fill="none" xmlns="http://www.w3.org/2000/svg">
<path d="M15.1508 8.40006C14.3843 8.39743 13.6249 8.54595 12.9159 8.83714C12.2069 9.12832 11.5623 9.55644 11.019 10.097C10.4756 10.6376 10.0442 11.28 9.74934 11.9875C9.45452 12.6949 9.30209 13.4536 9.30078 14.2201V20.1001C9.30078 20.3388 9.3956 20.5677 9.56439 20.7365C9.73317 20.9052 9.96209 21.0001 10.2008 21.0001H12.3008C12.5395 21.0001 12.7684 20.9052 12.9372 20.7365C13.106 20.5677 13.2008 20.3388 13.2008 20.1001V14.2201C13.2006 13.9475 13.2578 13.6779 13.3688 13.4289C13.4798 13.1799 13.642 12.9571 13.8448 12.775C14.0477 12.5929 14.2867 12.4556 14.5461 12.372C14.8056 12.2885 15.0798 12.2606 15.3508 12.2901C15.8368 12.3513 16.2834 12.5887 16.606 12.9574C16.9286 13.326 17.1046 13.8002 17.1008 14.2901V20.1001C17.1008 20.3388 17.1956 20.5677 17.3644 20.7365C17.5332 20.9052 17.7621 21.0001 18.0008 21.0001H20.1008C20.3395 21.0001 20.5684 20.9052 20.7372 20.7365C20.906 20.5677 21.0008 20.3388 21.0008 20.1001V14.2201C20.9995 13.4536 20.847 12.6949 20.5522 11.9875C20.2574 11.28 19.826 10.6376 19.2826 10.097C18.7393 9.55644 18.0946 9.12832 17.3857 8.83714C16.6767 8.54595 15.9172 8.39743 15.1508 8.40006Z" fill="white"/>
<path d="M6.6 9.30005H3.9C3.40294 9.30005 3 9.70299 3 10.2V20.1C3 20.5971 3.40294 21 3.9 21H6.6C7.09706 21 7.5 20.5971 7.5 20.1V10.2C7.5 9.70299 7.09706 9.30005 6.6 9.30005Z" fill="white"/>
<path d="M5.25 7.5C6.49264 7.5 7.5 6.49264 7.5 5.25C7.5 4.00736 6.49264 3 5.25 3C4.00736 3 3 4.00736 3 5.25C3 6.49264 4.00736 7.5 5.25 7.5Z" fill="white"/>
</svg>
