<svg width="20" height="20" viewBox="0 0 20 20" fill="none" xmlns="http://www.w3.org/2000/svg">
<path d="M11.2598 6.29564C11.0348 6.62547 10.8094 6.93335 10.6127 7.19272C10.3004 7.60441 9.69827 7.60441 9.38602 7.19272C9.17785 6.91827 8.93752 6.58951 8.6996 6.2379C8.57502 6.0537 8.45102 5.86323 8.33268 5.671C7.8737 4.92553 7.49935 4.15374 7.49935 3.61945C7.49935 2.23874 8.6186 0.833496 9.99935 0.833496C11.3801 0.833496 12.4993 2.23874 12.4993 3.61945C12.4993 4.05774 12.2474 4.65586 11.9035 5.26818C11.7088 5.61493 11.4845 5.96624 11.2598 6.29564ZM10.7253 4.35119C11.0426 4.12448 11.2493 3.75314 11.2493 3.3335C11.2493 2.64314 10.6897 2.0835 9.99935 2.0835C9.30902 2.0835 8.74935 2.64314 8.74935 3.3335C8.74935 3.75314 8.9561 4.12448 9.27335 4.35119C9.47802 4.49743 9.7286 4.58349 9.99935 4.58349C10.2701 4.58349 10.5207 4.49743 10.7253 4.35119ZM5.06406 9.85266L8.13167 6.88339C7.89751 6.54532 7.65819 6.1781 7.44434 5.809L2.49072 10.6038C1.96361 11.114 1.66602 11.8162 1.66602 12.5498V15.6252C1.66602 16.6607 2.50548 17.5002 3.54102 17.5002H16.4577C17.4932 17.5002 18.3327 16.6607 18.3327 15.6252V12.5498C18.3327 11.8162 18.0351 11.114 17.508 10.6038L12.5543 5.809C12.3405 6.1781 12.1012 6.54532 11.867 6.88339L13.6014 8.56225C13.0084 8.6335 12.4488 8.77583 11.9181 8.94883C11.3506 9.13391 10.7653 9.37475 10.2178 9.59991C9.8951 9.73266 9.5856 9.86 9.30068 9.96733C8.48177 10.2757 7.73587 10.4781 6.98239 10.4523C6.39052 10.4322 5.76052 10.2697 5.06406 9.85266ZM3.36008 11.502L4.14021 10.7468C5.10479 11.3895 6.02992 11.6706 6.93979 11.7016C7.94151 11.7357 8.8726 11.4642 9.74118 11.1371C10.1063 10.9996 10.4448 10.8597 10.7763 10.7226C11.2794 10.5145 11.7663 10.3132 12.3057 10.1372C13.1319 9.86783 13.9646 9.70516 14.8613 9.78166L16.6386 11.502C16.9224 11.7767 17.0827 12.1548 17.0827 12.5498V15.6252C17.0827 15.9703 16.8028 16.2502 16.4577 16.2502H3.54102C3.19584 16.2502 2.91602 15.9703 2.91602 15.6252V12.5498C2.91602 12.1548 3.07626 11.7767 3.36008 11.502Z" fill="#DFDFDF"/>
</svg>
