<svg width="21" height="20" viewBox="0 0 21 20" fill="none" xmlns="http://www.w3.org/2000/svg">
<path d="M11.3328 1.66992C12.6642 1.66992 13.7526 2.71069 13.8279 4.01911L13.832 4.16556L15.7078 4.16639C16.4305 4.16639 17.0304 4.69199 17.1461 5.38187L17.1613 5.50525L17.1662 5.62487L17.1654 8.75075L15.5007 8.75083C14.8811 8.75083 14.3622 9.2035 14.2675 9.78333L14.2547 9.8935L14.2507 10.0008C14.2507 10.6205 14.7034 11.1393 15.2833 11.2341L15.3934 11.2468L15.5007 11.2508L17.1654 11.2507L17.1662 14.3769C17.1662 15.1421 16.5769 15.7696 15.8274 15.8304L15.7078 15.8352L13.832 15.8347L13.8287 15.9786C13.7583 17.1917 12.8229 18.1729 11.6302 18.3142L11.4797 18.3275L11.3328 18.3317C10.0015 18.3317 8.91317 17.2909 8.83708 15.9813L8.83287 15.8347L6.95787 15.8352C6.23523 15.8352 5.63536 15.3097 5.51968 14.62L5.50437 14.4967L5.49954 14.3771L5.49871 12.5006L5.36287 12.4966C4.14968 12.4262 3.16858 11.4909 3.02726 10.2981L3.01401 10.1477L3.00977 10.0008C3.00977 8.66941 4.05053 7.5811 5.36282 7.50505L5.49871 7.50056L5.49954 5.62472C5.49954 4.90209 6.02514 4.30221 6.7148 4.18654L6.83813 4.17122L6.95772 4.16639L8.83204 4.16556L8.83708 4.02302C8.90742 2.80984 9.84283 1.82874 11.0356 1.68741L11.186 1.67416L11.3328 1.66992ZM11.3328 2.91992C10.6832 2.91992 10.1492 3.41566 10.0886 4.05005L10.0828 4.17053L10.0817 5.4156L6.95787 5.41639C6.85925 5.41639 6.77663 5.48491 6.75504 5.57705L6.74954 5.62487L6.74878 8.75066L5.50977 8.75083C4.81941 8.75083 4.25977 9.3105 4.25977 10.0008C4.25977 10.6506 4.75551 11.1845 5.38933 11.2451L5.50971 11.2508L6.74878 11.2507L6.74954 14.3769C6.74954 14.4755 6.81807 14.5582 6.91006 14.5797L6.95779 14.5852L10.0817 14.5848L10.0828 15.8317C10.0828 16.5221 10.6425 17.0817 11.3328 17.0817C11.9826 17.0817 12.5166 16.586 12.5772 15.9526L12.5828 15.8323L12.5817 14.5848L15.7078 14.5852C15.8065 14.5852 15.8891 14.5167 15.9107 14.4247L15.9162 14.3771L15.9153 12.4997L15.4797 12.5005L15.3302 12.4951C14.0708 12.4099 13.0768 11.3972 13.0052 10.1274L13.0011 9.97975L13.0065 9.83025C13.0917 8.57083 14.1044 7.57688 15.3553 7.50498L15.5007 7.50081L15.9153 7.50056L15.9162 5.62472C15.9162 5.54582 15.8723 5.47717 15.8077 5.44181L15.7556 5.42189L15.7077 5.41639L12.5817 5.4156L12.5828 4.16992C12.5828 3.47956 12.0232 2.91992 11.3328 2.91992Z" fill="#DFDFDF"/>
</svg>
