<svg width="14" height="15" viewBox="0 0 14 15" fill="none" xmlns="http://www.w3.org/2000/svg">
<path d="M5.55723 0.855985C5.63225 0.881505 5.70553 0.911859 5.7766 0.946852L6.6318 1.36789C6.86387 1.48215 7.13587 1.48215 7.36793 1.36789L8.22313 0.946852C9.13146 0.499612 10.2305 0.873452 10.6777 1.78184L10.7267 1.89006L10.7685 2.00122L11.0755 2.90362C11.1589 3.14853 11.3512 3.34087 11.5961 3.42418L12.4985 3.73115C13.4571 4.05723 13.9698 5.09866 13.6437 6.05723C13.6182 6.13225 13.5879 6.20553 13.5529 6.2766L13.1318 7.1318C13.0175 7.36387 13.0175 7.63587 13.1318 7.86793L13.5529 8.72313C14.0001 9.63146 13.6263 10.7305 12.7179 11.1777C12.6468 11.2127 12.5735 11.2431 12.4985 11.2685L11.5961 11.5755C11.3512 11.6589 11.1589 11.8512 11.0755 12.0961L10.7685 12.9985C10.4425 13.9571 9.40107 14.4698 8.44247 14.1437C8.36747 14.1182 8.2942 14.0879 8.22313 14.0529L7.36793 13.6318C7.13587 13.5175 6.86387 13.5175 6.6318 13.6318L5.7766 14.0529C4.86822 14.5001 3.76926 14.1263 3.32202 13.2179C3.28702 13.1468 3.25667 13.0735 3.23115 12.9985L2.92418 12.0961C2.84087 11.8512 2.64853 11.6589 2.40362 11.5755L1.50122 11.2685C0.542639 10.9425 0.0299055 9.90107 0.355985 8.94247C0.381505 8.86747 0.411859 8.7942 0.446852 8.72313L0.867886 7.86793C0.982152 7.63587 0.982152 7.36387 0.867886 7.1318L0.446852 6.2766C-0.000387788 5.36822 0.373452 4.26926 1.28184 3.82202C1.35293 3.78702 1.42621 3.75667 1.50122 3.73115L2.40362 3.42418C2.64853 3.34087 2.84087 3.14853 2.92418 2.90362L3.23115 2.00122C3.55723 1.04264 4.59866 0.529905 5.55723 0.855985ZM4.17787 2.32327L3.8709 3.22567C3.68761 3.76448 3.26448 4.18761 2.72567 4.3709L1.82327 4.67787C1.78917 4.68947 1.75587 4.70327 1.72355 4.71918C1.31065 4.92247 1.14072 5.42199 1.34401 5.8349L1.76505 6.69007C2.01643 7.20067 2.01643 7.79907 1.76505 8.30967L1.34401 9.1648C1.32811 9.19713 1.31431 9.23047 1.30271 9.26453C1.15449 9.70027 1.38755 10.1736 1.82327 10.3219L2.72567 10.6288C3.26448 10.8121 3.68761 11.2353 3.8709 11.7741L4.17787 12.6765C4.18947 12.7105 4.20327 12.7439 4.21918 12.7761C4.42247 13.1891 4.92199 13.359 5.3349 13.1557L6.19007 12.7347C6.70067 12.4833 7.29907 12.4833 7.80967 12.7347L8.6648 13.1557C8.69713 13.1716 8.73047 13.1854 8.76453 13.197C9.20027 13.3452 9.6736 13.1121 9.82187 12.6765L10.1288 11.7741C10.3121 11.2353 10.7353 10.8121 11.2741 10.6288L12.1765 10.3219C12.2105 10.3103 12.2439 10.2965 12.2761 10.2805C12.6891 10.0773 12.859 9.57773 12.6557 9.1648L12.2347 8.30967C11.9833 7.79907 11.9833 7.20067 12.2347 6.69007L12.6557 5.8349C12.6716 5.80259 12.6854 5.76928 12.697 5.73519C12.8452 5.29947 12.6121 4.82609 12.1765 4.67787L11.2741 4.3709C10.7353 4.18761 10.3121 3.76448 10.1288 3.22567L9.82187 2.32327L9.8028 2.27274L9.78053 2.22355L9.73907 2.14901C9.51513 1.79087 9.05193 1.65343 8.6648 1.84401L7.80967 2.26505C7.29907 2.51643 6.70067 2.51643 6.19007 2.26505L5.3349 1.84401C5.30259 1.82811 5.26928 1.81431 5.23519 1.80271C4.79947 1.65449 4.32609 1.88755 4.17787 2.32327ZM5.70013 9.09247L9.313 5.47964C9.50827 5.28438 9.8248 5.28438 10.0201 5.47964C10.1976 5.65715 10.2137 5.93493 10.0685 6.13067L10.0201 6.18673L6.02007 10.1867C5.82953 10.3773 5.52663 10.3802 5.3325 10.2053L5.28241 10.1533L3.61575 8.15327C3.43897 7.94113 3.46763 7.62587 3.67977 7.44907C3.87262 7.2884 4.15071 7.29747 4.33251 7.4598L4.38397 7.51313L5.70013 9.09247Z" fill="#F0F1F2"/>
</svg>
