<svg width="20" height="20" viewBox="0 0 20 20" fill="none" xmlns="http://www.w3.org/2000/svg">
<path d="M6.18738 2.35885C6.33521 1.94386 6.7281 1.66675 7.16864 1.66675H12.5467C13.2577 1.66675 13.7597 2.36331 13.5348 3.03781L12.3253 6.66675H15.6242C16.5443 6.66675 17.0126 7.77244 16.3723 8.43325L7.15484 17.9467C6.27672 18.8531 4.76154 18.0352 5.03729 16.8038L6.09499 12.0804L4.78794 12.0754C3.78232 12.0716 3.08229 11.075 3.41977 10.1277L6.18738 2.35885ZM7.31558 2.91675L4.59728 10.5472C4.54907 10.6825 4.64908 10.8249 4.79274 10.8254L6.87715 10.8334C7.06648 10.8342 7.24528 10.9207 7.36334 11.0687C7.48141 11.2167 7.52602 11.4102 7.48464 11.595L6.25709 17.077L15.1323 7.91675H11.4581C11.2572 7.91675 11.0685 7.82017 10.9511 7.65719C10.8336 7.49421 10.8017 7.2847 10.8652 7.09411L12.2576 2.91675H7.31558Z" fill="#DFDFDF"/>
</svg>
