<svg width="124" height="124" viewBox="0 0 124 124" fill="none" xmlns="http://www.w3.org/2000/svg">
<g filter="url(#filter0_b_7622_840)">
<circle cx="61.998" cy="61.9998" r="60" fill="white" fill-opacity="0.2"/>
<circle cx="61.998" cy="61.9998" r="59.5" stroke="#86868B" stroke-opacity="0.4"/>
</g>
<circle cx="61.9984" cy="61.9998" r="27" transform="rotate(-1 61.9984 61.9998)" fill="#1C1C1C"/>
<path d="M59.3611 62.546C59.2895 62.3089 59.249 62.0579 59.2445 61.798C59.2399 61.538 59.2716 61.2858 59.3349 61.0463L52.3369 61.1684C52.2735 61.4607 52.242 61.7174 52.2455 61.9201C52.2491 62.1229 52.2895 62.3783 52.3631 62.6682L59.3611 62.546ZM62.1113 68.499L56.7911 68.5918C58.1896 69.457 59.9549 70.0367 62.1374 69.9987L62.1392 69.9987C65.7795 69.9352 68.1998 68.1949 69.6877 66.3101C70.4268 65.374 70.9378 64.4014 71.2641 63.5754C71.5801 62.7755 71.7518 62.0391 71.7438 61.5798C71.7358 61.1205 71.5385 60.3905 71.1948 59.6021C70.8398 58.788 70.2952 57.8339 69.5239 56.9241C67.9711 55.0924 65.4915 53.4377 61.8513 53.5012L61.8501 53.5012C59.6675 53.5394 57.9229 54.1804 56.5555 55.0939L61.8757 55.001L61.8775 55.001C64.9862 54.9467 67.0606 56.338 68.3797 57.8941C69.0445 58.6783 69.5154 59.5036 69.8198 60.2017C70.1354 60.9255 70.2411 61.4404 70.244 61.606C70.2469 61.7715 70.1592 62.2898 69.8691 63.0242C69.5892 63.7325 69.1474 64.5738 68.5104 65.3806C67.2464 66.9818 65.2218 68.4447 62.1131 68.4989L62.1113 68.499ZM55.2793 56.1163C54.9166 56.4611 54.5914 56.8227 54.3016 57.1898C54.1838 57.339 54.0718 57.4892 53.9654 57.6395L61.9193 57.5006L61.8931 56.0009L55.2793 56.1163ZM61.9367 58.5005L53.3294 58.6507C53.082 59.0957 52.8822 59.5271 52.7252 59.9245C52.6935 60.0048 52.6633 60.0843 52.6345 60.1631L59.8424 60.0373C60.3361 59.4178 61.0922 59.0153 61.9461 59.0004C63.4646 58.9739 64.7171 60.1834 64.7436 61.702C64.7701 63.2205 63.5606 64.473 62.0421 64.4996C61.1882 64.5145 60.4185 64.1386 59.9035 63.5367L52.6956 63.6625C52.7271 63.7402 52.7601 63.8187 52.7946 63.8978C52.9654 64.2895 53.1801 64.7136 53.4428 65.1497L62.0502 64.9995L62.0676 65.9993C64.4145 65.9584 66.2844 64.0226 66.2434 61.6758C66.2025 59.3291 64.2658 57.46 61.9193 57.5006L61.9367 58.5005ZM62.0676 65.9993L54.1138 66.1382C54.2253 66.2846 54.3425 66.4308 54.4654 66.5758C54.7679 66.9326 55.1055 67.2826 55.48 67.6145L62.0938 67.4991L62.0676 65.9993Z" fill="#F0F1F2"/>
<path d="M34.7106 39.23L33.586 37.9308L32.769 27.205L32.7348 27.1654L28.0063 31.2587L26.5848 29.6166L33.6874 23.4681L34.8064 24.7607L35.6488 35.476L35.683 35.5155L40.6358 31.2281L42.0573 32.8703L34.7106 39.23Z" fill="#1C1C1C"/>
<path d="M41.0831 92.7112L33.3965 102.678L31.3105 101.07L38.9972 91.1025L41.0831 92.7112Z" fill="#1C1C1C"/>
<path d="M49.6358 97.2459L48.6387 110.481L45.9533 109.352L47.1354 99.1181L47.0872 99.0978L40.6065 107.103L37.9131 105.97L46.677 96.0012L49.6358 97.2459Z" fill="#1C1C1C"/>
<path d="M75.3865 102.412L75.3769 102.388C74.9257 101.253 75.4596 99.9986 76.5943 99.5474L76.6186 99.5377C77.7534 99.0866 79.0108 99.6285 79.462 100.763L79.4717 100.788C79.9228 101.922 79.3776 103.172 78.2429 103.623L78.2186 103.633C77.0838 104.084 75.8377 103.547 75.3865 102.412Z" fill="#1C1C1C"/>
<path d="M31.715 43.7133L21.3945 36.5083L22.9024 34.3484L33.223 41.5534L31.715 43.7133Z" fill="#1C1C1C"/>
<path d="M33.9094 85.5447C35.758 87.8971 35.8724 90.2589 34.1397 91.8091L34.0353 91.9022L32.4993 89.9476L32.564 89.8746C33.2297 89.1406 33.0684 87.9472 32.1792 86.8156C31.2791 85.6703 30.2125 85.3436 29.4581 85.9364L29.4513 85.9418C28.7792 86.47 28.8258 87.221 29.5367 88.6481L30.1502 89.8522C31.2953 92.1141 31.1386 93.8346 29.6504 95.0042L29.6435 95.0095C27.8329 96.4324 25.4 95.7927 23.6753 93.5981C21.8752 91.3074 21.9157 89.0014 23.5754 87.5418L23.7003 87.4326L25.2364 89.3872L25.1594 89.4587C24.4653 90.1706 24.5526 91.2558 25.3556 92.2776C26.1979 93.3353 27.186 93.5905 27.8924 93.0353L27.8993 93.03C28.5234 92.5395 28.4881 91.7463 27.8197 90.43L27.2077 89.2136C25.9916 86.819 26.1022 85.2234 27.659 84L27.6659 83.9946C29.5657 82.5017 31.9476 83.0482 33.9094 85.5447Z" fill="#1C1C1C"/>
<path d="M27.9563 74.4304C28.9487 77.5014 27.8028 80.0259 25.1384 80.8868L17.3945 83.3892L16.5846 80.8826L24.1044 78.4526C25.6565 77.9511 26.3518 76.7272 25.8315 75.117C25.3112 73.5068 24.0338 72.9296 22.4817 73.4311L14.9619 75.861L14.1519 73.3544L21.8959 70.8521C24.5519 69.9938 26.9586 71.3428 27.9563 74.4304Z" fill="#1C1C1C"/>
<path d="M25.6923 67.3226L13.369 62.2346L13.5409 59.1429L26.3517 55.4607L26.1982 58.2215L23.0972 59.0014L22.8503 63.4431L25.8458 64.5618L25.6923 67.3226ZM15.8918 60.8548L20.916 62.724L21.0951 59.5016L15.8947 60.8025L15.8918 60.8548Z" fill="#1C1C1C"/>
<path d="M88.6665 87.4369C91.191 84.6747 94.61 84.6444 97.5654 87.3455L97.5782 87.3572C100.534 90.0582 100.792 93.4732 98.2794 96.2225C95.7608 98.9782 92.3358 99.0149 89.3869 96.3198L89.3741 96.308C86.4187 93.607 86.142 90.199 88.6665 87.4369ZM90.3148 88.9433C88.9025 90.4886 89.2614 92.5654 91.1865 94.3249L91.1994 94.3367C93.1374 96.1079 95.2364 96.242 96.6311 94.716C98.0198 93.1965 97.7103 91.1174 95.7658 89.3403L95.7529 89.3285C93.8085 87.5514 91.7094 87.4173 90.3148 88.9433Z" fill="#1C1C1C"/>
<path d="M27.1587 53.345L15.4863 48.6353L16.472 46.1924L26.1302 50.0895L28.1897 44.9853L30.2038 45.798L27.1587 53.345Z" fill="#1C1C1C"/>
<path d="M65.14 27.5303C61.4126 27.2006 59.3133 24.5017 59.6661 20.5136L59.6676 20.4962C60.0204 16.5082 62.5775 14.23 66.2875 14.5581C70.0063 14.8871 72.1143 17.5867 71.7622 21.5662L71.7607 21.5835C71.4079 25.5716 68.8674 27.8601 65.14 27.5303ZM65.3368 25.306C67.422 25.4905 68.8548 23.9447 69.0846 21.3468L69.0861 21.3294C69.3175 18.7141 68.15 16.9646 66.0908 16.7824C64.0403 16.6011 62.5758 18.109 62.3437 20.733L62.3422 20.7504C62.1101 23.3743 63.2776 25.1239 65.3368 25.306Z" fill="#1C1C1C"/>
<path d="M97.4002 72.2158L109.107 76.8381L107.198 81.6736C106.16 84.3022 104.15 85.309 101.797 84.38L101.781 84.3736C100.239 83.765 99.2811 82.4395 99.2825 80.9396L93.7004 81.5865L94.7959 78.8118L99.9008 78.3047L100.676 76.3413L96.4328 74.666L97.4002 72.2158ZM102.534 77.0749L101.698 79.1924C101.217 80.4093 101.619 81.4118 102.771 81.8667L102.787 81.8731C103.907 82.3151 104.925 81.8263 105.402 80.6174L106.225 78.5323L102.534 77.0749Z" fill="#1C1C1C"/>
<path d="M44.4587 31.5089L39.6406 19.8809L47.3443 16.6888L48.1757 18.6953L42.9056 20.879L44.0609 23.6671L49.0328 21.607L49.8208 23.5088L44.8489 25.5689L46.0609 28.494L51.331 26.3103L52.1624 28.3168L44.4587 31.5089Z" fill="#1C1C1C"/>
<path d="M78.09 30.6761L84.8359 20.0498L91.7949 24.4676L90.6309 26.3012L85.8958 23.2953L84.0866 26.1451L88.4093 28.8893L87.292 30.6493L82.9693 27.9051L80.314 32.0879L78.09 30.6761Z" fill="#1C1C1C"/>
<path d="M90.1726 40.9348C88.1687 38.4049 88.3593 35.6391 90.5541 33.9006L96.9336 28.8477L98.5692 30.9126L92.3743 35.8193C91.0957 36.8321 90.8723 38.2219 91.923 39.5484C92.9737 40.8748 94.3722 40.9688 95.6509 39.9561L101.846 35.0494L103.481 37.1143L97.1018 42.1673C94.9138 43.9003 92.1872 43.4784 90.1726 40.9348Z" fill="#1C1C1C"/>
<path d="M95.8917 50.4985L105.766 47.1861L104.609 43.7377L106.668 43.0469L109.822 52.4495L107.763 53.1403L106.603 49.6835L96.7295 52.996L95.8917 50.4985Z" fill="#1C1C1C"/>
<path d="M97.9819 64.0139C98.0546 60.7873 99.967 58.7801 102.766 58.8432L110.902 59.0266L110.843 61.6602L102.942 61.4821C101.312 61.4453 100.252 62.3724 100.214 64.0642C100.176 65.756 101.193 66.7211 102.823 66.7579L110.724 66.936L110.665 69.5695L102.529 69.3861C99.7381 69.3232 97.9088 67.2579 97.9819 64.0139Z" fill="#1C1C1C"/>
<defs>
<filter id="filter0_b_7622_840" x="-38.002" y="-38.0002" width="200" height="200" filterUnits="userSpaceOnUse" color-interpolation-filters="sRGB">
<feFlood flood-opacity="0" result="BackgroundImageFix"/>
<feGaussianBlur in="BackgroundImageFix" stdDeviation="20"/>
<feComposite in2="SourceAlpha" operator="in" result="effect1_backgroundBlur_7622_840"/>
<feBlend mode="normal" in="SourceGraphic" in2="effect1_backgroundBlur_7622_840" result="shape"/>
</filter>
</defs>
</svg>
